<svg width="300" height="72" viewBox="0 0 300 72" fill="none" xmlns="http://www.w3.org/2000/svg">
<path d="M116.783 32.1943H140.41V39.6743H116.783V32.1943ZM117.575 64.4171H148.25V72H110.25V0H146.765V7.58286H117.575V64.4171Z" fill="#D38920"/>
<path d="M174 72L174 3.05176e-05L167 3.02116e-05L167 72L174 72Z" fill="#D38920"/>
<path d="M193 3.05176e-05H149V7.00003H193V3.05176e-05Z" fill="#D38920"/>
<path d="M204 72L204 3.05176e-05L197 3.02116e-05L197 72L204 72Z" fill="#D38920"/>
<path d="M59 72L59 3.05176e-05L52 3.02116e-05L52 72L59 72Z" fill="#D38920"/>
<path d="M61 72L106 3.05176e-05L98 3.02116e-05L53 72L61 72Z" fill="#D38920"/>
<path d="M198 72L238 72L238 65L198 65L198 72Z" fill="#D38920"/>
<path d="M23.9539 72C19.1631 72 14.5566 71.1573 10.1344 69.4719C5.77351 67.7191 2.39539 65.4944 0 62.7978L2.67178 57.0337C4.94434 59.4607 7.98464 61.5169 11.7927 63.2023C15.6622 64.8203 19.7159 65.6292 23.9539 65.6292C28.0077 65.6292 31.2937 65.0899 33.8119 64.0113C36.3916 62.8652 38.2649 61.3483 39.4319 59.4607C40.6603 57.5731 41.2745 55.4832 41.2745 53.191C41.2745 50.427 40.5374 48.2023 39.0633 46.5169C37.6507 44.8315 35.7774 43.5169 33.4434 42.5731C31.1094 41.5618 28.5298 40.6854 25.7044 39.9439C22.8791 39.2023 20.0537 38.427 17.2284 37.618C14.4031 36.7416 11.7927 35.5955 9.39731 34.1798C7.06334 32.7641 5.15931 30.9101 3.68522 28.618C2.27255 26.2585 1.56622 23.191 1.56622 19.4158C1.56622 15.9101 2.39539 12.7079 4.05374 9.80902C5.77351 6.84272 8.38388 4.48317 11.8848 2.73037C15.3858 0.910143 19.8695 3.05176e-05 25.3359 3.05176e-05C28.9597 3.05176e-05 32.5528 0.573064 36.1152 1.71913C39.6775 2.79778 42.7486 4.31464 45.3282 6.26969L43.0249 12.236C40.261 10.2135 37.3129 8.73037 34.1804 7.78655C31.1094 6.84273 28.1305 6.37082 25.2438 6.37082C21.3743 6.37082 18.1804 6.94385 15.6622 8.08992C13.144 9.23598 11.2706 10.7865 10.0422 12.7416C8.87524 14.6292 8.29175 16.7865 8.29175 19.2135C8.29175 21.9776 8.99808 24.2023 10.4107 25.8877C11.8848 27.5731 13.7889 28.8877 16.1228 29.8315C18.5182 30.7753 21.1286 31.618 23.9539 32.3596C26.7793 33.1012 29.5739 33.9101 32.3378 34.7865C35.1631 35.663 37.7428 36.809 40.0768 38.2248C42.4722 39.5731 44.3762 41.3933 45.7889 43.6854C47.263 45.9776 48 48.9776 48 52.6854C48 56.1236 47.1401 59.3259 45.4203 62.2922C43.7006 65.191 41.0595 67.5506 37.4971 69.3708C33.9962 71.1236 29.4818 72 23.9539 72Z" fill="#D38920"/>
<g clip-path="url(#clip0_1_639)">
<path d="M262.307 72C247.875 71.5931 236.727 64.6824 229.624 51.4935C226.237 45.2052 225.376 38.3065 226.413 31.2534C228.514 16.9354 236.904 7.57106 250.05 2.26131C255.606 0.017379 261.517 -0.397636 267.496 0.324571C280.307 1.8707 289.654 8.55366 295.883 19.6126C299.446 25.9374 300.531 32.8767 299.607 40.0601C297.707 54.8136 289.158 64.3507 275.665 69.8233C271.635 71.4548 267.314 71.884 262.307 72ZM232.862 35.9568C232.779 39.6981 233.327 43.423 234.899 46.8916C239.257 56.5021 246.522 62.6703 256.982 64.7902C262.511 65.9112 268.085 65.726 273.327 63.6062C285.122 58.8376 292.209 50.3766 293.047 37.3586C293.4 31.8819 292.3 26.6882 289.509 21.946C281.917 9.03784 267.551 3.76065 253.423 8.07558C243.295 11.1658 232.536 21.7752 232.862 35.9568Z" fill="#D38920"/>
<path d="M250.885 17.4174C256.702 17.3727 261.118 21.6612 261.046 27.2904C260.993 31.4487 257.21 35.4849 252.925 36.2539C248.53 37.0431 245.068 34.6569 243.809 32.0387C242.26 28.8161 243.083 24.6538 245.778 22.5116C248.549 20.3083 252.627 20.2575 255.219 22.3935C257.288 24.0984 257.849 27.6586 256.421 30.0124C255.056 32.2623 251.832 33.2491 249.326 32.126C247.857 31.469 246.966 30.3419 246.845 28.6859C246.729 27.093 247.4 25.9232 248.781 25.1685C250.404 24.2835 252.513 24.9976 253.293 26.6658C253.593 27.3046 253.476 27.8804 252.885 28.277C252.299 28.6696 251.75 28.5293 251.218 28.0736C250.867 27.7726 250.45 27.4714 250.018 27.3839C249.867 27.3534 249.355 28.0248 249.416 28.277C249.547 28.8161 249.83 29.4489 250.257 29.7621C251.234 30.4783 253.185 30.0469 253.97 29.0786C255.482 27.2151 254.609 24.2998 252.326 23.5816C249.432 22.6724 246.406 24.255 245.735 27.0279C244.96 30.2362 246.833 33.2654 249.928 33.8085C253.848 34.4961 258.057 31.5118 258.451 27.7623C258.889 23.602 255.658 20.0052 251.381 19.8953C247.106 19.7855 243.505 21.9502 242.271 25.5754C240.542 30.6471 244.068 36.5753 248.835 37.5334C252.024 38.1743 254.994 37.6331 257.775 36.0729C260.481 34.5551 261.758 32.0813 262.409 29.1152C262.825 27.2192 263.429 25.3069 264.311 23.5837C266.21 19.8689 269.479 17.977 273.588 17.7023C277.769 17.4236 281.497 18.6076 284.21 21.9725C288.846 27.7196 286.212 37.5884 278.377 39.2749C271.376 40.7823 265.749 35.2651 266.763 28.3299C267.416 23.8563 271.256 21.1384 274.878 21.1852C279.179 21.24 282.792 24.5358 282.947 28.7571C283.047 31.4669 281.617 34.073 278.973 35.3627C276.663 36.4879 273.715 35.8327 271.758 33.8635C270.232 32.3275 269.922 30.4925 270.63 28.5171C271.299 26.6495 272.509 25.2763 274.635 25.0789C276.106 24.9426 277.414 25.3557 278.316 26.5986C279.085 27.6606 279.267 28.8283 278.699 30.051C278.179 31.1699 276.73 32.0772 275.535 31.8372C275.057 31.7416 274.466 31.2025 274.317 30.7406C274.109 30.0958 274.639 29.6177 275.308 29.4408C275.851 29.2962 276.553 29.3349 276.398 28.452C276.278 27.7786 275.557 27.4449 274.68 27.6139C273.651 27.8132 273.286 28.6127 273.009 29.4671C272.664 30.5271 272.862 31.4812 273.707 32.2501C274.813 33.2551 276.12 33.7516 277.555 33.2267C279.228 32.6144 280.144 31.2553 280.356 29.5262C280.697 26.737 279.02 24.6232 275.969 23.842C273.49 23.2073 270.807 24.611 269.754 27.093C268.269 30.5941 269.744 34.7647 273.017 36.323C276.577 38.0197 280.887 36.6201 282.768 33.1556C286.073 27.0707 282.203 20.3877 275.251 20.1802C270.001 20.0236 266.584 22.6804 265.262 27.7643C264.198 31.8556 265.412 35.0739 268.671 37.6453C271.199 39.6391 273.276 41.9969 274.194 45.1442C275.316 48.985 274.206 52.4089 271.774 55.3953C265.643 62.9206 255.774 60.1213 252.37 53.3204C250.644 49.8679 250.944 46.4177 253.266 43.3498C255.584 40.284 258.765 39.0837 262.621 39.7794C264.947 40.1985 266.953 41.2219 268.516 42.9613C272.484 47.3759 270.83 53.6886 265.211 55.7494C260.938 57.3159 256.343 54.9621 255.158 50.6004C254.335 47.5731 256.127 44.6539 259.257 43.4942C263.109 42.0661 266.369 45.2927 266.667 48.0574C266.869 49.929 265.521 51.9004 263.57 52.3988C261.856 52.8361 259.983 51.8799 259.426 50.2932C259.071 49.2841 259.283 48.3443 259.816 47.4775C260.175 46.8937 260.822 46.5946 261.381 47.0077C261.754 47.2822 261.911 47.9109 262.052 48.4134C262.183 48.8813 262.105 49.4103 262.258 49.8679C262.291 49.9636 263.087 50.0022 263.248 49.8212C263.617 49.4041 264.025 48.8365 264.037 48.3218C264.08 46.6272 262.05 45.2418 260.428 45.7545C257.359 46.7249 256.563 49.4916 258.645 51.9573C260.424 54.067 263.346 54.3396 265.806 52.6286C268.161 50.991 268.806 48.0838 267.392 45.6242C266.053 43.2929 262.183 41.2585 258.665 42.3386C255.796 43.2196 253.629 46.2855 253.901 49.516C254.182 52.8687 256.213 55.1106 259.132 56.5082C262.972 58.3473 266.984 57.2853 269.793 53.8512C272.568 50.46 272.752 46.2772 270.271 42.8717C268.802 40.8556 267.053 39.1834 264.576 38.4815C262.738 37.9608 260.885 37.9383 259.073 38.6036C256.316 39.6166 253.527 40.4101 250.54 40.2718C245.611 40.044 241.495 36.9395 239.965 32.2462C237.427 24.4585 242.564 17.4826 250.885 17.4174Z" fill="#D38920"/>
</g>
<defs>
<clipPath id="clip0_1_639">
<rect width="74" height="72" fill="white" transform="translate(226 3.05176e-05)"/>
</clipPath>
</defs>
</svg>
