<svg width="32" height="32" viewBox="0 0 32 32" fill="none" xmlns="http://www.w3.org/2000/svg">
<g clip-path="url(#clip0_1_634)">
<path d="M15.7003 32C9.45957 31.8192 4.63858 28.7477 1.56721 22.886C0.102554 20.0912 -0.269786 17.0251 0.178434 13.8904C1.08723 7.52683 4.71534 3.3649 10.4001 1.00501C12.8027 0.00771043 15.3588 -0.176741 17.944 0.14424C23.4841 0.831409 27.5261 3.80161 30.2198 8.71668C31.7603 11.5277 32.2297 14.6119 31.83 17.8045C31.0086 24.3616 27.3116 28.6003 21.4768 31.0326C19.7342 31.7577 17.8655 31.9484 15.7003 32ZM2.96746 15.9808C2.93128 17.6436 3.16862 19.2991 3.84802 20.8407C5.73266 25.112 8.87459 27.8535 13.3974 28.7956C15.7885 29.2938 18.199 29.2116 20.4657 28.2694C25.5664 26.15 28.6307 22.3896 28.9934 16.6038C29.146 14.1697 28.6704 11.8614 27.4634 9.75378C24.1803 4.0168 17.9678 1.67139 11.8586 3.58913C7.47878 4.96257 2.82628 9.67784 2.96746 15.9808Z" fill="#D38920"/>
<path d="M10.7611 7.74106C13.2766 7.72119 15.186 9.62717 15.1551 12.129C15.1321 13.9772 13.4963 15.7711 11.6434 16.1128C9.74287 16.4636 8.24559 15.403 7.70118 14.2394C7.0315 12.8071 7.38712 10.9572 8.55263 10.0051C9.75084 9.02588 11.5146 9.00332 12.6352 9.95266C13.5298 10.7104 13.7725 12.2927 13.1549 13.3388C12.5646 14.3388 11.1705 14.7773 10.087 14.2782C9.45172 13.9862 9.06617 13.4853 9.01413 12.7493C8.96381 12.0413 9.25407 11.5214 9.85142 11.186C10.5529 10.7926 11.4652 11.11 11.8022 11.8514C11.932 12.1354 11.8816 12.3912 11.6258 12.5675C11.3726 12.742 11.1352 12.6797 10.9049 12.4771C10.7531 12.3433 10.5731 12.2095 10.3861 12.1706C10.3208 12.1571 10.0993 12.4554 10.1258 12.5675C10.1823 12.8071 10.305 13.0884 10.4893 13.2276C10.912 13.5459 11.7555 13.3542 12.0952 12.9238C12.749 12.0956 12.3713 10.7999 11.384 10.4807C10.1329 10.0766 8.82439 10.78 8.53413 12.0124C8.19884 13.4383 9.00883 14.7846 10.3473 15.026C12.0422 15.3316 13.8625 14.0052 14.0328 12.3388C14.2225 10.4898 12.8249 8.89117 10.9755 8.84235C9.12702 8.79353 7.56973 9.7556 7.03596 11.3668C6.2886 13.6209 7.81324 16.2557 9.87438 16.6815C11.2534 16.9663 12.5381 16.7258 13.7407 16.0324C14.9107 15.3578 15.463 14.2583 15.7445 12.9401C15.9245 12.0974 16.1856 11.2475 16.5668 10.4816C17.3883 8.83058 18.8017 7.98975 20.5787 7.86766C22.3866 7.7438 23.9986 8.27 25.1721 9.76553C27.1767 12.3198 26.0377 16.7059 22.6495 17.4555C19.6222 18.1255 17.1888 15.6733 17.6274 12.591C17.9097 10.6028 19.5702 9.39482 21.1364 9.41561C22.9963 9.43999 24.5589 10.9048 24.6259 12.7809C24.6691 13.9853 24.0507 15.1435 22.9072 15.7167C21.9083 16.2168 20.6334 15.9256 19.7872 15.0504C19.1273 14.3677 18.9932 13.5522 19.2993 12.6742C19.5888 11.8442 20.1119 11.2339 21.0313 11.1462C21.6675 11.0856 22.233 11.2692 22.623 11.8216C22.9557 12.2936 23.0342 12.8125 22.7889 13.356C22.5639 13.8532 21.9375 14.2565 21.4204 14.1498C21.214 14.1074 20.9581 13.8677 20.8937 13.6625C20.8037 13.3759 21.0331 13.1634 21.3225 13.0848C21.5572 13.0205 21.8607 13.0377 21.7937 12.6453C21.7416 12.346 21.4301 12.1977 21.0508 12.2728C20.606 12.3614 20.4481 12.7167 20.3282 13.0965C20.179 13.5676 20.2646 13.9916 20.6299 14.3334C21.1081 14.78 21.6737 15.0007 22.2939 14.7674C23.0175 14.4953 23.4136 13.8912 23.5054 13.1227C23.6527 11.8831 22.9275 10.9436 21.6084 10.5964C20.5364 10.3143 19.3761 10.9382 18.9208 12.0413C18.2785 13.5974 18.9164 15.4509 20.3317 16.1435C21.8713 16.8976 23.7348 16.2756 24.5483 14.7358C25.9776 12.0314 24.3039 9.06117 21.2978 8.96895C19.0276 8.89934 17.5497 10.0802 16.978 12.3397C16.5182 14.158 17.0432 15.5884 18.4523 16.7312C19.5455 17.6174 20.4437 18.6653 20.8407 20.064C21.326 21.7711 20.846 23.2928 19.7943 24.6201C17.143 27.9647 12.8751 26.7205 11.4034 23.6979C10.657 22.1635 10.7867 20.6301 11.7908 19.2665C12.7931 17.904 14.1686 17.3705 15.8362 17.6797C16.8421 17.866 17.7094 18.3208 18.3853 19.0939C20.1014 21.0559 19.3858 23.8616 16.9559 24.7775C15.1083 25.4737 13.1213 24.4276 12.6087 22.489C12.2531 21.1436 13.0278 19.8461 14.3813 19.3307C16.0471 18.696 17.4571 20.1301 17.5858 21.3588C17.6732 22.1906 17.09 23.0668 16.2465 23.2883C15.5054 23.4827 14.6954 23.0577 14.4545 22.3525C14.301 21.904 14.3927 21.4863 14.6231 21.1011C14.7783 20.8416 15.058 20.7087 15.2997 20.8923C15.4612 21.0143 15.5292 21.2937 15.5901 21.517C15.6465 21.725 15.613 21.9601 15.6792 22.1635C15.6933 22.206 16.0374 22.2232 16.1071 22.1427C16.2668 21.9574 16.4432 21.7051 16.4485 21.4763C16.4671 20.7232 15.5892 20.1074 14.8877 20.3353C13.5607 20.7666 13.2166 21.9962 14.1166 23.0921C14.886 24.0297 16.1495 24.1509 17.2135 23.3905C18.2317 22.6626 18.5105 21.3706 17.8991 20.2774C17.3203 19.2413 15.6465 18.3371 14.1254 18.8171C12.8849 19.2087 11.9478 20.5713 12.0652 22.0071C12.1869 23.4972 13.0649 24.4936 14.3274 25.1147C15.988 25.9321 17.7226 25.4601 18.9376 23.9339C20.1376 22.4266 20.217 20.5676 19.144 19.0541C18.5088 18.158 17.7526 17.4148 16.6815 17.1029C15.8865 16.8714 15.0854 16.8614 14.3019 17.1571C13.1098 17.6074 11.9037 17.96 10.612 17.8985C8.4803 17.7973 6.70067 16.4175 6.0389 14.3316C4.9413 10.8704 7.16301 7.77001 10.7611 7.74106Z" fill="#D38920"/>
</g>
<defs>
<clipPath id="clip0_1_634">
<rect width="32" height="32" fill="white"/>
</clipPath>
</defs>
</svg>
