<svg width="120" height="120" viewBox="0 0 120 120" fill="none" xmlns="http://www.w3.org/2000/svg">
<g clip-path="url(#clip0_339_28)">
<circle cx="60" cy="60" r="50" fill="white"/>
<path fill-rule="evenodd" clip-rule="evenodd" d="M78.4 0C112 0 120 8 120 41.6V78.4C120 112 112 120 78.4 120H41.6C8 120 0 112 0 78.4V41.6C0 8 8 0 41.6 0H78.4ZM32.5 37.5H23.75C21.25 37.5 20.75 38.7 20.75 39.95C20.75 42.3 23.7 53.8 34.55 69C37.4204 73.5863 41.3364 77.4273 45.9774 80.2084C50.6183 82.9895 55.8521 84.6315 61.25 85C66.8 85 67.5 83.75 67.5 81.6V73.75C67.5 71.25 68.05 70.75 69.8 70.75C71.55 70.75 73.3 71.4 78.5 76.4C84.45 82.35 85.4 85 88.75 85H97.5C100 85 101.25 83.75 100.55 81.3C98.6871 77.4856 96.1842 74.0188 93.15 71.05C91.1 68.6 88.15 66.05 87.1 64.75C86.05 63.45 86.2 62.3 87.1 60.85C91.7333 54.6219 95.689 47.9173 98.9 40.85C99.45 39 98.9 37.65 96.25 37.65H87.5C86.6892 37.6054 85.885 37.8184 85.2025 38.2584C84.52 38.6985 83.9941 39.3431 83.7 40.1C80.9886 46.5488 77.3686 52.5765 72.95 58C70.9 60.05 69.95 60.7 68.85 60.7C67.75 60.7 67.5 60.05 67.5 58.2V40.7C67.5 38.5 66.85 37.5 65 37.5H51.25C50.6878 37.4725 50.1372 37.6666 49.7166 38.0405C49.2959 38.4144 49.0386 38.9385 49 39.5C49 41.6 52.2 42.1 52.5 48.05V60.9C52.5 63.75 52 64.25 50.9 64.25C47.9 64.25 40.9 53.35 36.4 40.9C35.6 38.5 35 37.5 32.5 37.5Z" fill="#4872A3"/>
</g>
<defs>
<clipPath id="clip0_339_28">
<path d="M0 60C0 26.8629 26.8629 0 60 0V0C93.1371 0 120 26.8629 120 60V60C120 93.1371 93.1371 120 60 120V120C26.8629 120 0 93.1371 0 60V60Z" fill="white"/>
</clipPath>
</defs>
</svg>
